<svg viewBox="0 0 24 24" version="1.1" xmlns="http://www.w3.org/2000/svg" xmlns:xlink="http://www.w3.org/1999/xlink" xlink:href="http://www.w3.org/1999/xlink"><title>Lists</title><path d="M 20 2.667969 C 20.738281 2.667969 21.332031 3.261719 21.332031 4 L 21.332031 21.332031 C 21.332031 22.070312 20.738281 22.667969 20 22.667969 L 4 22.667969 C 3.261719 22.667969 2.667969 22.070312 2.667969 21.332031 L 2.667969 4 C 2.667969 3.261719 3.261719 2.667969 4 2.667969 Z M 20 4 L 4 4 L 4 21.332031 L 20 21.332031 Z M 16.667969 16 C 17.035156 16 17.332031 16.296875 17.332031 16.667969 C 17.332031 17.035156 17.035156 17.332031 16.667969 17.332031 L 10 17.332031 C 9.632812 17.332031 9.332031 17.035156 9.332031 16.667969 C 9.332031 16.296875 9.632812 16 10 16 Z M 7.332031 16 C 7.703125 16 8 16.296875 8 16.667969 C 8 17.035156 7.703125 17.332031 7.332031 17.332031 C 6.964844 17.332031 6.667969 17.035156 6.667969 16.667969 C 6.667969 16.296875 6.964844 16 7.332031 16 Z M 16.667969 12 C 17.035156 12 17.332031 12.296875 17.332031 12.667969 C 17.332031 13.035156 17.035156 13.332031 16.667969 13.332031 L 10 13.332031 C 9.632812 13.332031 9.332031 13.035156 9.332031 12.667969 C 9.332031 12.296875 9.632812 12 10 12 Z M 7.332031 12 C 7.703125 12 8 12.296875 8 12.667969 C 8 13.035156 7.703125 13.332031 7.332031 13.332031 C 6.964844 13.332031 6.667969 13.035156 6.667969 12.667969 C 6.667969 12.296875 6.964844 12 7.332031 12 Z M 16.667969 8 C 17.035156 8 17.332031 8.296875 17.332031 8.667969 C 17.332031 9.035156 17.035156 9.332031 16.667969 9.332031 L 10 9.332031 C 9.632812 9.332031 9.332031 9.035156 9.332031 8.667969 C 9.332031 8.296875 9.632812 8 10 8 Z M 7.332031 8 C 7.703125 8 8 8.296875 8 8.667969 C 8 9.035156 7.703125 9.332031 7.332031 9.332031 C 6.964844 9.332031 6.667969 9.035156 6.667969 8.667969 C 6.667969 8.296875 6.964844 8 7.332031 8 Z M 7.332031 8 "></path></svg>