<svg viewBox="0 0 18 18" version="1.1" xmlns="http://www.w3.org/2000/svg" xmlns:xlink="http://www.w3.org/1999/xlink" xlink:href="http://www.w3.org/1999/xlink"><title>Gift Finder</title><path d="M16,6.99999997 L15,6.99999996 L15,5.99999996 L3,5.99999996 L3,14 L7,14 L7,14.999 L2,14.9998201 L2,4.99982007 L5.757,4.99982007 C4.627,4.31482007 4.118,3.10082007 4.564,2.01582007 C4.744,1.57882007 5.103,1.25282007 5.573,1.09982007 C6.239,0.884820069 7.048,1.01982007 7.795,1.47882007 C8.37,1.83282007 8.749,2.38182007 9,2.94582007 C9.251,2.38182007 9.63,1.83282007 10.205,1.47882007 C10.951,1.02082007 11.76,0.886820069 12.427,1.09982007 C12.897,1.25282007 13.255,1.57782007 13.436,2.01582007 C13.882,3.09982007 13.372,4.31382007 12.243,4.99982007 L16,4.99982007 L16,6.99999997 Z M11.772,1.99982007 C11.45,1.99982007 11.081,2.11382007 10.728,2.33082007 C9.935,2.81882007 9.658,3.96182007 9.562,4.62282007 C10.05,4.61982007 10.803,4.56482007 11.411,4.30482007 C12.339,3.90682007 12.802,3.10382007 12.511,2.39582007 C12.442,2.22882007 12.31,2.11282007 12.117,2.05082007 C12.011,2.01682007 11.895,1.99982007 11.772,1.99982007 L11.772,1.99982007 Z M5.489,2.39582007 C5.198,3.10382007 5.66,3.90782007 6.589,4.30482007 C7.197,4.56582007 7.95,4.61982007 8.438,4.62382007 C8.342,3.96182007 8.065,2.81982007 7.272,2.33082007 C6.784,2.03082007 6.267,1.92782007 5.883,2.04982007 C5.69,2.11282007 5.558,2.22882007 5.489,2.39582007 L5.489,2.39582007 Z M11.3397906,8.06799229 C13.5274304,7.76053956 15.5501025,9.28473235 15.8575553,11.4723722 C16.0207004,12.63321 15.668103,13.7475974 14.9743068,14.5839071 L16.6967077,16.0818333 C16.905115,16.262999 16.9271987,16.5788103 16.746033,16.7872176 C16.5648673,16.9956249 16.249056,17.0177086 16.0406487,16.8365429 L14.2396681,15.2718867 C13.7283687,15.6420065 13.1217556,15.896174 12.4531754,15.9901368 C10.2655356,16.2975896 8.24286345,14.7733968 7.93541072,12.585757 C7.627958,10.3981172 9.15215078,8.37544501 11.3397906,8.06799229 Z M11.4789637,9.05826035 C9.83823384,9.2888499 8.69508925,10.805854 8.92567879,12.4465839 C9.15626833,14.0873137 10.6732724,15.2304583 12.3140023,14.9998688 C13.9547322,14.7692792 15.0978767,13.2522751 14.8672872,11.6115453 C14.6366977,9.9708154 13.1196936,8.82767081 11.4789637,9.05826035 Z"></path></svg>