<svg class="aa_b" version="1.1" xmlns="http://www.w3.org/2000/svg" xmlns:xlink="http://www.w3.org/1999/xlink" xlink:href="http://www.w3.org/1999/xlink"><path d="M10.9144981,7.40520446 L10.3494424,1.13011152 C10.3494424,0.505576208 11.063197,0 11.9851301,0 C12.9070632,0 13.6208178,0.505576208 13.6208178,1.13011152 L13.0557621,7.40520446 C12.9962825,7.79182156 12.5204461,8.08921933 11.9553903,8.08921933 C11.4200743,8.08921933 10.9739777,7.79182156 10.9144981,7.40520446 M7.46468401,10.6468401 L1.75464684,7.97026022 C1.21933086,7.67286245 1.13011152,6.78066914 1.60594796,5.97769517 C2.05204461,5.17472119 2.85501859,4.81784387 3.42007435,5.11524164 L8.59479554,8.74349442 C8.89219331,8.98141264 8.92193309,9.5464684 8.62453532,10.0223048 C8.32713755,10.527881 7.82156134,10.795539 7.46468401,10.6468401 M15.4349442,8.7732342 L20.6096654,5.14498141 C21.1449814,4.84758364 21.9479554,5.20446097 22.4237918,6.00743494 C22.8698885,6.81040892 22.8104089,7.67286245 22.2750929,8 L16.5650558,10.6765799 C16.2081784,10.795539 15.732342,10.5576208 15.4349442,10.0817844 C15.1078067,9.5464684 15.1375465,9.01115242 15.4349442,8.7732342 M11.9851301,15.9405204 C12.5501859,15.9405204 12.9962825,16.2379182 13.0855019,16.5947955 L13.6505576,22.8698885 C13.6505576,23.4944238 12.936803,24 12.0148699,24 C11.0929368,24 10.3791822,23.4944238 10.3791822,22.8698885 L10.9442379,16.5947955 C10.9739777,16.2081784 11.4200743,15.9405204 11.9851301,15.9405204 M15.4052045,13.9776952 C15.6728625,13.5018587 16.1784387,13.2342007 16.535316,13.3828996 L22.2453532,16.0297398 C22.7806691,16.3271375 22.8698885,17.2193309 22.394052,18.0223048 C21.9479554,18.8252788 21.1152416,19.1821561 20.5799257,18.8847584 L15.4052045,15.2565056 C15.1375465,14.9888476 15.1078067,14.4535316 15.4052045,13.9776952 M8.59479554,13.9776952 C8.86245353,14.4535316 8.86245353,15.0185874 8.56505576,15.2565056 L3.39033457,18.8847584 C2.85501859,19.1821561 2.05204461,18.8252788 1.57620818,18.0223048 C1.13011152,17.2193309 1.18959108,16.3568773 1.72490706,16.0297398 L7.43494424,13.3828996 C7.82156134,13.2342007 8.32713755,13.472119 8.59479554,13.9776952" id="XMLID_3_" fill="currentColor"></path></svg>