<svg xmlns="http://www.w3.org/2000/svg" viewBox="0 0 32 32"><path d="M16 30.214q-1.268 0-2.839-.286-1.357-.268-2.696-.839-1.268-.554-2.393-1.304-1.286-.893-2.107-1.714-.857-.857-1.75-2.143-.75-1.125-1.304-2.393-.571-1.339-.839-2.696-.286-1.571-.286-2.839t.286-2.839q.268-1.357.839-2.696.554-1.268 1.304-2.393.821-1.214 1.714-2.107.929-.929 2.143-1.75 1.125-.75 2.393-1.304 1.339-.571 2.696-.839 1.571-.286 2.839-.286t2.839.286q1.357.268 2.696.839 1.268.554 2.393 1.304 1.143.768 2.107 1.732.982.982 1.75 2.125.75 1.125 1.304 2.393.571 1.339.839 2.696.286 1.571.286 2.839t-.286 2.839q-.268 1.357-.839 2.696-.554 1.268-1.304 2.393-.821 1.214-1.714 2.107-.929.911-2.143 1.75-1.125.75-2.393 1.304-1.339.571-2.696.839-1.571.286-2.839.286zm0-26.643q-1.268 0-2.5.232-1.161.232-2.339.732-1.179.554-2.089 1.143-.964.589-1.857 1.536-.964.911-1.536 1.839-.554.857-1.143 2.107-.464 1.036-.714 2.375-.25 1.304-.25 2.464t.25 2.5q.25 1.286.714 2.339.554 1.179 1.143 2.089.607 1 1.5 1.875.786.768 1.875 1.5.964.643 2.107 1.161 1.036.464 2.375.714 1.304.25 2.464.25t2.5-.25q1.286-.25 2.339-.714 1.089-.482 2.089-1.161 1.107-.732 1.875-1.5t1.5-1.875q.679-1 1.161-2.089.464-1.054.714-2.339.25-1.214.25-2.5 0-1.268-.25-2.464-.25-1.339-.714-2.375-.518-1.143-1.161-2.107-.696-1.036-1.5-1.839-.929-.929-1.875-1.536-.911-.589-2.089-1.143-1.054-.464-2.339-.714-1.214-.25-2.5-.25zm1.786 8.858v8.911h1.768v1.786h-5.339V21.34h1.786v-7.125h-.875q-.179 0-.339-.054-.089-.036-.286-.196-.161-.161-.214-.286-.071-.25-.071-.339 0-.054.071-.339.054-.161.179-.286.161-.161.321-.214.286-.071.339-.071h2.661zm-.911-1.768q-.018 0-.304-.071-.161-.054-.286-.179-.161-.143-.214-.286Q16 9.839 16 9.786q0-.071.071-.357.018-.107.179-.268.214-.214.321-.232.161-.054.304-.054.179 0 .339.054.107.018.286.232.196.161.214.268.071.286.071.357 0 .054-.071.339-.054.161-.179.286t-.321.179q-.286.071-.339.071z" fill="currentColor"></path></svg>