<svg xmlns="http://www.w3.org/2000/svg" viewBox="0 0 32 32"><path d="M16 3.571q-.643 0-1.214.125-.661.125-1.196.339-.554.232-1.054.554-.5.357-.946.786-.429.429-.75.911-.375.589-.554 1.054-.196.518-.375 1.232-.125.518-.125 1.214t.125 1.25q.125.607.375 1.143.214.607.536 1.107.375.518.768.911.429.429.911.75.536.339 1.089.554.536.232 1.196.375.518.125 1.214.125t1.214-.125q.661-.143 1.196-.375.518-.179 1.054-.554.589-.357.946-.75.429-.411.75-.911.268-.464.554-1.107.25-.607.375-1.143.125-.554.125-1.25t-.125-1.214q-.179-.714-.375-1.232-.179-.464-.536-1.018-.393-.571-.768-.946-.411-.411-.911-.75-.554-.357-1.089-.589-.661-.232-1.196-.357-.411-.107-1.214-.107zm7.125 23.09v2.679q0 .161-.054.321-.018.107-.196.286-.161.161-.304.214-.161.054-.357.054-.179 0-.339-.054-.089-.036-.286-.196-.125-.161-.179-.304-.071-.286-.071-.321v-2.679H18.66q-.036 0-.321-.071-.107-.036-.268-.179-.214-.179-.232-.286-.054-.161-.054-.339t.054-.339q.036-.089.196-.286.196-.179.304-.214.286-.071.321-.071h2.679v-2.661q0-.054.071-.339.054-.161.179-.286t.286-.179q.286-.071.339-.071.071 0 .357.071.143.054.268.179.214.179.232.286.054.161.054.339v2.661h2.661q.054 0 .339.071.161.054.286.179.125.161.179.304.071.286.071.357 0 .054-.071.339-.054.161-.179.286t-.286.179q-.286.071-.339.071h-2.661zM8 9.786q0-.821.161-1.607.179-.821.464-1.518.321-.696.75-1.339.464-.696.964-1.196.411-.393 1.196-.964.607-.429 1.339-.75.768-.321 1.536-.482.696-.143 1.589-.143.929 0 1.625.143.714.161 1.5.482.696.321 1.339.75.696.464 1.196.964.464.464 1 1.196.339.518.714 1.339.286.696.464 1.518.161.786.161 1.607 0 .982-.214 1.893-.196.875-.661 1.786-.571.982-1.071 1.571-.554.661-1.339 1.214h-.036q.661.196 1.107.375l1 .5q.304.161.893.625.375.286.786.75 0 .036.071.071.018.018.018.054.107.054.107.161v.054l.018.036v.071l.036.143q0 .196-.054.357-.018.089-.196.304-.196.161-.304.196-.214.054-.357.054-.107 0-.143-.036-.089-.018-.196-.018l-.036-.018q-.018-.018-.054-.045t-.071-.063q-.089-.089-.125-.107-.411-.446-.893-.768-.589-.393-1.107-.625-.625-.286-1.179-.411-.518-.125-1.321-.125h-5.339q-.732 0-1.286.125-.536.125-1.143.375-.589.214-1.071.536-.518.375-.911.768-.393.411-.75.911-.375.554-.589 1.089-.161.464-.339 1.196-.125.518-.125 1.214v4.446l8-.036q.143 0 .304.054.107.018.286.196.196.161.214.304.071.286.071.357 0 .018-.071.304-.054.161-.179.286-.161.161-.321.214-.214.071-.304.071l-9.786.018v-6.214q0-.804.089-1.339.107-.482.357-1.286.25-.696.518-1.179.464-.804.696-1.107.393-.536.911-.964.482-.464 1-.786.536-.375 1.125-.643.589-.25 1.214-.411l.054-.036q-.75-.571-1.375-1.214-.607-.714-1.018-1.571-.518-1.089-.696-1.768-.214-.875-.214-1.911z" fill="currentColor"></path></svg>