<svg viewBox="0 0 18 15" version="1.1" xmlns="http://www.w3.org/2000/svg" xmlns:xlink="http://www.w3.org/1999/xlink" xlink:href="http://www.w3.org/1999/xlink"><path d="M14.2361228,0 C14.0548624,0.00365236447 13.8835069,0.115310364 13.8052579,0.301320069 L13.3298207,1.42859627 C13.2778198,1.55173313 13.2746007,1.69104475 13.3204111,1.81652956 C13.3662214,1.94201437 13.4573469,2.04323704 13.5742251,2.09802251 L14.097206,2.34299181 L13.6435597,3.41861315 C12.1600473,3.07059499 10.5601519,3.36330591 9.23908049,4.34396577 C9.02191468,4.50493069 8.96966612,4.82138199 9.12294507,5.05017653 C9.27597639,5.27949284 9.57609608,5.33453919 9.79375714,5.17279162 C11.6246853,3.81411204 14.1053776,4.0410804 15.6923966,5.71255892 C17.4864289,7.60265753 17.4864289,10.6784702 15.6923966,12.5685688 C13.8983643,14.4586674 10.9793785,14.4589283 9.18509857,12.5685688 C8.31594008,11.6531297 7.83728385,10.4355879 7.83728385,9.14056386 C7.83728385,9.11630172 7.83356949,9.09282223 7.83035039,9.06934275 L10.008942,9.06934275 C10.2082789,9.06934275 10.369977,8.89872515 10.369977,8.68897508 C10.369977,8.47896412 10.2082789,8.30860741 10.008942,8.30860741 L0.361035066,8.30860741 C0.161450523,8.30860741 0,8.47896412 0,8.68897508 C0,8.89872515 0.161450523,9.06934275 0.361035066,9.06934275 L6.88145713,9.06934275 C6.87823802,9.09282223 6.87452367,9.11630172 6.87452367,9.14056386 C6.87452367,10.7066456 7.45346742,12.1788093 8.50438156,13.2857366 C9.5889725,14.428405 11.0137981,15 12.4386238,15 C13.8634494,15 15.2885227,14.428405 16.3731136,13.2857366 C17.4490377,12.1521992 17.9913332,10.6662087 18,9.1770875 L18,9.10404021 C17.9913332,7.61517992 17.4490377,6.12892847 16.3731136,4.99539106 C16.0046498,4.60745778 15.5963187,4.28526706 15.1614918,4.0272536 L15.5792326,3.03668017 L16.1024611,3.28138859 C16.1661003,3.31112928 16.2322158,3.32521697 16.2975884,3.32521697 C16.4820679,3.32521697 16.6578806,3.21277632 16.737863,3.02415778 L17.2130525,1.89688158 C17.2648058,1.77374472 17.2682726,1.6344331 17.2224622,1.50868741 C17.1766519,1.3832026 17.0855264,1.28197993 16.9686481,1.22719446 L14.4404122,0.0438283737 C14.3797444,0.0153921074 14.3163528,0.00130441588 14.253704,0 L14.2361228,0 Z M14.4047544,1.37694141 L14.4894416,1.17658313 L16.1381189,1.94827556 L16.0534316,2.14863384 L14.4047544,1.37694141 Z M14.3443342,3.63045028 L14.7571226,2.65187749 L14.9195636,2.72779449 L14.5090039,3.70141051 C14.4537838,3.67819191 14.4000495,3.6518427 14.3443342,3.63045028 Z M13.4937475,5.41436945 L13.3927171,5.58603058 C12.5998267,6.93349218 11.7712784,8.3537402 11.6363236,8.67384385 C11.6256758,8.69888864 11.6187423,8.72419431 11.6098279,8.74923909 C11.5226644,8.87602831 11.492702,9.04612415 11.5303408,9.23239473 C11.5318265,9.26109188 11.5313313,9.29057168 11.5345504,9.3182253 C11.5635223,9.5446719 11.672229,9.71789833 11.8324414,9.79668504 C11.8388796,9.80346801 11.8440797,9.8112945 11.8505179,9.81807746 C12.1429613,10.1230499 14.1385591,11.7110458 14.7085884,12.1448945 C14.7402842,12.1694175 14.7774277,12.1811573 14.8143236,12.1811573 C14.8613721,12.1811573 14.9084206,12.161591 14.9438307,12.1235021 C15.0064795,12.0559334 15.0121748,11.9500148 14.95745,11.8754022 L14.8328954,11.7037411 C14.0288619,10.5975964 13.1852086,9.44527541 12.8358119,9.02029671 C13.0769972,8.30625946 13.663122,6.18136598 13.8213534,5.56385551 C13.8448776,5.47280728 13.8012959,5.37732403 13.7188373,5.33949597 C13.6958083,5.32906065 13.6715412,5.32410387 13.6475217,5.32410387 C13.5866063,5.32410387 13.5276719,5.35671426 13.4937475,5.41436945 Z M3.91022272,6.51816617 C3.7108858,6.51816617 3.54918766,6.68878376 3.54918766,6.89853384 C3.54918766,7.10854479 3.7108858,7.27890151 3.91022272,7.27890151 L10.4645692,7.27890151 C10.6641537,7.27890151 10.8256043,7.10854479 10.8256043,6.89853384 C10.8256043,6.68878376 10.6641537,6.51816617 10.4645692,6.51816617 L3.91022272,6.51816617 Z" id="Fill-1" fill="currentColor" mask="url(#mask-2)"></path></svg>