<svg xmlns="http://www.w3.org/2000/svg" class="a4_a"><defs><linearGradient x1="0%" y1="36.2656164%" x2="100%" y2="50%" id="linearGradient-1"><stop stop-color="#006BDD" offset="0%"></stop><stop stop-color="#007AAA" offset="45.9560152%"></stop><stop stop-color="#008191" offset="100%"></stop></linearGradient><linearGradient x1="0%" y1="50.0002209%" x2="100.00058%" y2="50.0002209%" id="linearGradient-4"><stop stop-color="#0265FF" offset="0%"></stop><stop stop-color="#016DE0" offset="100%"></stop></linearGradient></defs><g id="Page-1" stroke="none" stroke-width="1" fill="none" fill-rule="evenodd"><g id="ND_toggle-logo"><g id="Group-3-Copy-2" transform="translate(25.000000, 5.000000)" fill="url(#linearGradient-1)"><path d="M0.742,9.734 L2.072,0.312 C2.086,0.172 2.226,0.06 2.352,0.06 L2.478,0.06 C2.646,0.06 2.702,0.06 2.856,0.312 L7.084,7.046 L7.112,7.046 L7.994,0.466 C8.008,0.326 8.12,0.2 8.26,0.2 L9.226,0.2 C9.352,0.2 9.45,0.326 9.436,0.466 L8.106,9.888 C8.092,10.028 7.952,10.14 7.826,10.14 L7.686,10.14 C7.518,10.14 7.434,10.14 7.294,9.916 L3.052,3.042 L3.038,3.042 L2.17,9.734 C2.156,9.874 2.03,10 1.89,10 L0.952,10 C0.826,10 0.728,9.874 0.742,9.734 Z M10.164,7.27 C10.164,5.212 11.536,3.392 13.72,3.392 C14.924,3.392 15.834,4.022 15.834,5.212 C15.834,7.06 13.328,7.382 11.522,7.172 C11.438,8.054 11.956,8.88 12.852,8.88 C13.328,8.88 13.776,8.712 14.21,8.404 C14.392,8.278 14.49,8.264 14.602,8.404 L14.994,8.922 C15.078,9.062 15.092,9.202 14.91,9.356 C14.406,9.762 13.594,10.154 12.628,10.154 C11.06,10.154 10.164,8.852 10.164,7.27 Z M11.76,6.108 C12.852,6.22 14.49,6.192 14.49,5.254 C14.49,4.834 14.098,4.582 13.552,4.582 C12.656,4.582 11.956,5.296 11.76,6.108 Z M16.408,10 C16.17,10 16.114,9.776 16.282,9.566 L18.55,6.668 L17.066,3.952 C16.94,3.742 17.08,3.532 17.318,3.532 L18.158,3.532 C18.326,3.532 18.466,3.574 18.522,3.714 L19.46,5.758 L19.488,5.758 L20.958,3.714 C21.042,3.574 21.182,3.532 21.35,3.532 L22.33,3.532 C22.582,3.532 22.61,3.756 22.428,3.98 L20.146,6.738 L21.756,9.58 C21.868,9.79 21.714,10 21.49,10 L20.678,10 C20.524,10 20.412,9.944 20.342,9.804 L19.264,7.676 L19.236,7.676 L17.682,9.874 C17.64,9.944 17.528,10 17.43,10 L16.408,10 Z M25.396,10.154 C24.094,10.154 23.632,9.272 23.8,8.124 L24.276,4.792 L23.506,4.792 C23.338,4.792 23.226,4.638 23.254,4.484 L23.338,3.84 C23.366,3.658 23.492,3.532 23.646,3.532 L24.458,3.532 L24.696,1.74 C24.71,1.572 24.864,1.432 25.018,1.432 L25.858,1.432 C26.012,1.432 26.11,1.572 26.096,1.74 L25.83,3.532 L27.3,3.532 C27.454,3.532 27.566,3.658 27.538,3.84 L27.44,4.484 C27.412,4.638 27.3,4.792 27.132,4.792 L25.662,4.792 L25.2,8.138 C25.13,8.67 25.424,8.796 25.69,8.796 C26.012,8.796 26.25,8.698 26.446,8.586 C26.628,8.474 26.684,8.558 26.74,8.698 L27.006,9.398 C27.062,9.566 26.992,9.664 26.796,9.79 C26.6,9.916 26.082,10.154 25.396,10.154 Z M28.49,9.734 L29.792,0.466 C29.806,0.326 29.932,0.2 30.058,0.2 L32.984,0.2 C35.182,0.2 36.778,2.188 36.778,4.47 C36.778,7.508 34.524,10 31.612,10 L28.672,10 C28.546,10 28.462,9.874 28.49,9.734 Z M30.058,8.67 L31.626,8.67 C33.586,8.67 35.224,6.892 35.224,4.526 C35.224,2.818 34.202,1.53 32.634,1.53 L31.066,1.53 L30.058,8.67 Z M43.554,3.476 C43.778,3.476 43.89,3.602 43.862,3.812 L43.064,9.734 C43.036,9.944 42.91,10.056 42.728,10.056 C42.294,10.056 42.042,9.706 42,9.3 C41.496,9.776 40.908,10.154 40.124,10.154 C38.766,10.154 37.758,9.034 37.758,7.214 C37.758,5.184 39.088,3.392 40.922,3.392 C41.748,3.392 42.308,3.826 42.672,4.204 C42.826,3.784 43.12,3.476 43.554,3.476 Z M40.418,8.838 C41.216,8.838 41.86,8.026 41.93,7.886 L42.238,5.338 C42.238,5.338 41.692,4.694 40.852,4.694 C39.788,4.694 39.088,5.842 39.088,7.004 C39.088,8.166 39.606,8.838 40.418,8.838 Z M46.564,9.678 L45.136,3.91 C45.094,3.714 45.192,3.532 45.416,3.532 L46.256,3.532 C46.382,3.532 46.452,3.602 46.48,3.714 L47.446,8.236 L47.474,8.236 L49.686,3.714 C49.77,3.56 49.896,3.532 50.036,3.532 L50.862,3.532 C51.1,3.532 51.156,3.728 51.044,3.952 L46.172,13.136 C46.13,13.22 46.032,13.332 45.892,13.332 L44.996,13.332 C44.772,13.332 44.702,13.15 44.814,12.926 L46.564,9.678 Z M60.228,0.2 L61.012,0.2 C61.166,0.2 61.264,0.34 61.25,0.508 L59.962,9.734 C59.934,9.93 59.808,10.056 59.626,10.056 C59.192,10.056 58.954,9.706 58.898,9.314 C58.548,9.734 57.848,10.154 56.98,10.154 C55.622,10.154 54.67,8.852 54.67,7.284 C54.67,5.072 56.168,3.392 58.044,3.392 C58.674,3.392 59.234,3.644 59.388,3.742 L59.85,0.508 C59.878,0.298 60.06,0.2 60.228,0.2 Z M57.344,8.838 C58.142,8.838 58.8,7.97 58.87,7.83 L59.206,5.072 C59.206,5.072 58.73,4.694 57.988,4.694 C56.966,4.694 56.07,5.828 56.07,7.102 C56.07,8.166 56.574,8.838 57.344,8.838 Z M61.95,7.27 C61.95,5.212 63.322,3.392 65.506,3.392 C66.71,3.392 67.62,4.022 67.62,5.212 C67.62,7.06 65.114,7.382 63.308,7.172 C63.224,8.054 63.742,8.88 64.638,8.88 C65.114,8.88 65.562,8.712 65.996,8.404 C66.178,8.278 66.276,8.264 66.388,8.404 L66.78,8.922 C66.864,9.062 66.878,9.202 66.696,9.356 C66.192,9.762 65.38,10.154 64.414,10.154 C62.846,10.154 61.95,8.852 61.95,7.27 Z M63.546,6.108 C64.638,6.22 66.276,6.192 66.276,5.254 C66.276,4.834 65.884,4.582 65.338,4.582 C64.442,4.582 63.742,5.296 63.546,6.108 Z M68.782,10 C68.642,10 68.544,9.86 68.572,9.692 L69.86,0.508 C69.874,0.34 70.028,0.2 70.182,0.2 L71.008,0.2 C71.162,0.2 71.26,0.34 71.246,0.508 L69.944,9.692 C69.93,9.86 69.776,10 69.636,10 L68.782,10 Z M71.974,9.692 L72.772,3.84 C72.786,3.686 72.954,3.532 73.094,3.532 L74.004,3.532 C74.144,3.532 74.256,3.686 74.228,3.84 L73.416,9.692 C73.402,9.86 73.234,10 73.094,10 L72.184,10 C72.044,10 71.946,9.86 71.974,9.692 Z M73.71,2.146 C73.234,2.146 72.898,1.796 72.898,1.334 C72.898,0.746 73.43,0.256 73.976,0.256 C74.452,0.256 74.802,0.606 74.802,1.054 C74.802,1.642 74.298,2.146 73.71,2.146 Z M77.182,9.986 L75.474,3.91 C75.418,3.714 75.572,3.532 75.768,3.532 L76.524,3.532 C76.65,3.532 76.734,3.602 76.762,3.714 L77.742,7.606 L77.77,7.606 L79.884,3.7 C79.968,3.546 80.066,3.532 80.178,3.532 L80.99,3.532 C81.214,3.532 81.284,3.714 81.158,3.91 L77.756,9.986 C77.686,10.07 77.588,10.154 77.476,10.154 L77.42,10.154 C77.322,10.154 77.196,10.07 77.182,9.986 Z M81.536,7.27 C81.536,5.212 82.908,3.392 85.092,3.392 C86.296,3.392 87.206,4.022 87.206,5.212 C87.206,7.06 84.7,7.382 82.894,7.172 C82.81,8.054 83.328,8.88 84.224,8.88 C84.7,8.88 85.148,8.712 85.582,8.404 C85.764,8.278 85.862,8.264 85.974,8.404 L86.366,8.922 C86.45,9.062 86.464,9.202 86.282,9.356 C85.778,9.762 84.966,10.154 84,10.154 C82.432,10.154 81.536,8.852 81.536,7.27 Z M83.132,6.108 C84.224,6.22 85.862,6.192 85.862,5.254 C85.862,4.834 85.47,4.582 84.924,4.582 C84.028,4.582 83.328,5.296 83.132,6.108 Z M92.68,3.602 C92.82,3.686 92.792,3.826 92.722,3.98 L92.4,4.652 C92.302,4.848 92.134,4.848 92.036,4.806 C91.952,4.792 91.616,4.694 91.378,4.694 C90.65,4.694 90.188,5.282 90.062,5.478 L89.474,9.692 C89.446,9.916 89.348,10 89.082,10 L88.326,10 C88.186,10 88.088,9.86 88.116,9.692 L88.914,3.84 C88.942,3.644 89.054,3.476 89.264,3.476 C89.726,3.476 89.964,3.882 89.992,4.302 C90.44,3.826 90.972,3.392 91.756,3.392 C92.134,3.392 92.47,3.462 92.68,3.602 Z M94.766,9.678 L93.338,3.91 C93.296,3.714 93.394,3.532 93.618,3.532 L94.458,3.532 C94.584,3.532 94.654,3.602 94.682,3.714 L95.648,8.236 L95.676,8.236 L97.888,3.714 C97.972,3.56 98.098,3.532 98.238,3.532 L99.064,3.532 C99.302,3.532 99.358,3.728 99.246,3.952 L94.374,13.136 C94.332,13.22 94.234,13.332 94.094,13.332 L93.198,13.332 C92.974,13.332 92.904,13.15 93.016,12.926 L94.766,9.678 Z" id="NextDay-delivery"></path></g><g id="Group-3-Copy-3"><mask id="mask-3" fill="white"><path d="M17.3997056,0 C17.1781651,0.00438283737 16.9687307,0.138372437 16.873093,0.361584083 L16.2920031,1.71431553 C16.2284464,1.86207976 16.224512,2.0292537 16.2805024,2.17983547 C16.3364928,2.33041724 16.4478684,2.45188445 16.5907196,2.51762701 L17.2299184,2.81159017 L16.6754619,4.10233577 C14.8622801,3.68471399 12.9068523,4.03596709 11.2922095,5.21275893 C11.0267846,5.40591683 10.9629253,5.78565838 11.1502662,6.06021184 C11.3373045,6.33539141 11.7041174,6.40144703 11.9701476,6.20734995 C14.2079487,4.57693445 17.2399059,4.84929649 19.1795958,6.8550707 C21.3723019,9.12318904 21.3723019,12.8141642 19.1795958,15.0822826 C16.9868897,17.3504009 13.4192403,17.350714 11.2262316,15.0822826 C10.1639268,13.9837557 9.57890248,12.5227055 9.57890248,10.9686766 C9.57890248,10.9395621 9.57436271,10.9113867 9.57042825,10.8832113 L12.2331513,10.8832113 C12.4767853,10.8832113 12.6744164,10.6784702 12.6744164,10.4267701 C12.6744164,10.1747569 12.4767853,9.97032889 12.2331513,9.97032889 L0.441265081,9.97032889 C0.197328418,9.97032889 0,10.1747569 0,10.4267701 C0,10.6784702 0.197328418,10.8832113 0.441265081,10.8832113 L8.41066982,10.8832113 C8.40673536,10.9113867 8.4021956,10.9395621 8.4021956,10.9686766 C8.4021956,12.8479747 9.10979351,14.6145712 10.3942441,15.942884 C11.7198553,17.314086 13.4613088,18 15.2027624,18 C16.9442159,18 18.6859721,17.314086 20.0115833,15.942884 C21.3266016,14.5826391 21.9894072,12.7994504 22,11.012505 L22,10.9248483 C21.9894072,9.13821591 21.3266016,7.35471416 20.0115833,5.99446928 C19.5612387,5.52894934 19.0621673,5.14232047 18.5307122,4.83270432 L19.0412843,3.64401621 L19.6807858,3.93766631 C19.7585671,3.97335513 19.8393749,3.99026036 19.9192747,3.99026036 C20.1447497,3.99026036 20.3596319,3.85533158 20.4573881,3.62898934 L21.0381753,2.27625789 C21.1014293,2.12849366 21.1056665,1.96131972 21.049676,1.81042489 C20.9936856,1.65984312 20.8823101,1.53837592 20.7394588,1.47263335 L17.6493926,0.0525940484 C17.5752432,0.0184705289 17.4977645,0.00156529906 17.4211938,0 L17.3997056,0 Z M17.6058109,1.65232969 L17.7093175,1.41189975 L19.7243675,2.33793067 L19.6208609,2.57836061 L17.6058109,1.65232969 Z M17.5319641,4.35654034 L18.0364832,3.18225299 L18.2350222,3.27335339 L17.7332269,4.44169261 C17.6657358,4.41383029 17.6000605,4.38221125 17.5319641,4.35654034 Z M16.4923581,6.49724333 L16.3688765,6.70323669 C15.3997881,8.32019062 14.3871181,10.0244882 14.2221733,10.4086126 C14.2091593,10.4386664 14.2006851,10.4690332 14.1897897,10.4990869 C14.0832565,10.651234 14.0466358,10.855349 14.0926387,11.0788737 C14.0944546,11.1133103 14.0938493,11.148686 14.0977838,11.1818704 C14.1331939,11.4536063 14.2660577,11.661478 14.4618729,11.7560221 C14.4697418,11.7641616 14.4760975,11.7735534 14.4839664,11.781693 C14.8413971,12.1476599 17.2804611,14.053255 17.9771636,14.5738734 C18.0159029,14.603301 18.0613006,14.6173887 18.1063956,14.6173887 C18.1638992,14.6173887 18.2214029,14.5939092 18.264682,14.5482025 C18.3412527,14.46712 18.3482137,14.3400177 18.2813278,14.2504826 L18.1290944,14.0444893 C17.1463868,12.7171157 16.115255,11.3343305 15.6882145,10.8243561 C15.9829965,9.96751135 16.6993713,7.41763918 16.8927653,6.67662661 C16.9215171,6.56736873 16.8682505,6.45278884 16.7674678,6.40739517 C16.7393212,6.39487278 16.7096614,6.38892464 16.6803043,6.38892464 C16.6058522,6.38892464 16.5338212,6.42805712 16.4923581,6.49724333 Z M4.77916111,7.8217994 C4.53552709,7.8217994 4.33789603,8.02654052 4.33789603,8.2782406 C4.33789603,8.53025375 4.53552709,8.73468181 4.77916111,8.73468181 L12.790029,8.73468181 C13.0339657,8.73468181 13.2312941,8.53025375 13.2312941,8.2782406 C13.2312941,8.02654052 13.0339657,7.8217994 12.790029,7.8217994 L4.77916111,7.8217994 Z" id="path-2"></path></mask><path d="M17.3997056,0 C17.1781651,0.00438283737 16.9687307,0.138372437 16.873093,0.361584083 L16.2920031,1.71431553 C16.2284464,1.86207976 16.224512,2.0292537 16.2805024,2.17983547 C16.3364928,2.33041724 16.4478684,2.45188445 16.5907196,2.51762701 L17.2299184,2.81159017 L16.6754619,4.10233577 C14.8622801,3.68471399 12.9068523,4.03596709 11.2922095,5.21275893 C11.0267846,5.40591683 10.9629253,5.78565838 11.1502662,6.06021184 C11.3373045,6.33539141 11.7041174,6.40144703 11.9701476,6.20734995 C14.2079487,4.57693445 17.2399059,4.84929649 19.1795958,6.8550707 C21.3723019,9.12318904 21.3723019,12.8141642 19.1795958,15.0822826 C16.9868897,17.3504009 13.4192403,17.350714 11.2262316,15.0822826 C10.1639268,13.9837557 9.57890248,12.5227055 9.57890248,10.9686766 C9.57890248,10.9395621 9.57436271,10.9113867 9.57042825,10.8832113 L12.2331513,10.8832113 C12.4767853,10.8832113 12.6744164,10.6784702 12.6744164,10.4267701 C12.6744164,10.1747569 12.4767853,9.97032889 12.2331513,9.97032889 L0.441265081,9.97032889 C0.197328418,9.97032889 0,10.1747569 0,10.4267701 C0,10.6784702 0.197328418,10.8832113 0.441265081,10.8832113 L8.41066982,10.8832113 C8.40673536,10.9113867 8.4021956,10.9395621 8.4021956,10.9686766 C8.4021956,12.8479747 9.10979351,14.6145712 10.3942441,15.942884 C11.7198553,17.314086 13.4613088,18 15.2027624,18 C16.9442159,18 18.6859721,17.314086 20.0115833,15.942884 C21.3266016,14.5826391 21.9894072,12.7994504 22,11.012505 L22,10.9248483 C21.9894072,9.13821591 21.3266016,7.35471416 20.0115833,5.99446928 C19.5612387,5.52894934 19.0621673,5.14232047 18.5307122,4.83270432 L19.0412843,3.64401621 L19.6807858,3.93766631 C19.7585671,3.97335513 19.8393749,3.99026036 19.9192747,3.99026036 C20.1447497,3.99026036 20.3596319,3.85533158 20.4573881,3.62898934 L21.0381753,2.27625789 C21.1014293,2.12849366 21.1056665,1.96131972 21.049676,1.81042489 C20.9936856,1.65984312 20.8823101,1.53837592 20.7394588,1.47263335 L17.6493926,0.0525940484 C17.5752432,0.0184705289 17.4977645,0.00156529906 17.4211938,0 L17.3997056,0 Z M17.6058109,1.65232969 L17.7093175,1.41189975 L19.7243675,2.33793067 L19.6208609,2.57836061 L17.6058109,1.65232969 Z M17.5319641,4.35654034 L18.0364832,3.18225299 L18.2350222,3.27335339 L17.7332269,4.44169261 C17.6657358,4.41383029 17.6000605,4.38221125 17.5319641,4.35654034 Z M16.4923581,6.49724333 L16.3688765,6.70323669 C15.3997881,8.32019062 14.3871181,10.0244882 14.2221733,10.4086126 C14.2091593,10.4386664 14.2006851,10.4690332 14.1897897,10.4990869 C14.0832565,10.651234 14.0466358,10.855349 14.0926387,11.0788737 C14.0944546,11.1133103 14.0938493,11.148686 14.0977838,11.1818704 C14.1331939,11.4536063 14.2660577,11.661478 14.4618729,11.7560221 C14.4697418,11.7641616 14.4760975,11.7735534 14.4839664,11.781693 C14.8413971,12.1476599 17.2804611,14.053255 17.9771636,14.5738734 C18.0159029,14.603301 18.0613006,14.6173887 18.1063956,14.6173887 C18.1638992,14.6173887 18.2214029,14.5939092 18.264682,14.5482025 C18.3412527,14.46712 18.3482137,14.3400177 18.2813278,14.2504826 L18.1290944,14.0444893 C17.1463868,12.7171157 16.115255,11.3343305 15.6882145,10.8243561 C15.9829965,9.96751135 16.6993713,7.41763918 16.8927653,6.67662661 C16.9215171,6.56736873 16.8682505,6.45278884 16.7674678,6.40739517 C16.7393212,6.39487278 16.7096614,6.38892464 16.6803043,6.38892464 C16.6058522,6.38892464 16.5338212,6.42805712 16.4923581,6.49724333 Z M4.77916111,7.8217994 C4.53552709,7.8217994 4.33789603,8.02654052 4.33789603,8.2782406 C4.33789603,8.53025375 4.53552709,8.73468181 4.77916111,8.73468181 L12.790029,8.73468181 C13.0339657,8.73468181 13.2312941,8.53025375 13.2312941,8.2782406 C13.2312941,8.02654052 13.0339657,7.8217994 12.790029,7.8217994 L4.77916111,7.8217994 Z" id="Fill-1" fill="url(#linearGradient-4)" mask="url(#mask-3)"></path></g></g></g></svg>